<svg xmlns="http://www.w3.org/2000/svg">
    <symbol id="attention" viewBox="0 0 24 24" fill="none">
        <path fill-rule="evenodd" clip-rule="evenodd" d="M23 21L12 2L1 21H23ZM11 18V16H13V18H11ZM11 14H13V10H11V14Z" fill="#FF8D00"/>
    </symbol>
    <symbol id="facebook" viewBox="0 0 80.56 155.14">
        <path d="M52.29,155.14V84.38H76L79.6,56.79H52.29V39.18c0-8,2.21-13.42,13.67-13.42h14.6V1.08A197.48,197.48,0,0,0,59.29,0C38.23,0,23.81,12.85,23.81,36.45V56.79H0V84.38H23.81v70.76Z"/>
    </symbol>
    <symbol id="instagram" viewBox="0 0 512 512">
        <path d="M405.1,0H106.9A107,107,0,0,0,0,106.9V405.1A107,107,0,0,0,106.9,512H405.1A107,107,0,0,0,512,405.1V106.9A107,107,0,0,0,405.1,0ZM106.9,482A77,77,0,0,1,30,405.1V204.34h79.52a158.62,158.62,0,0,0-13,63.06c0,87.94,71.55,159.48,159.49,159.48S415.49,355.34,415.49,267.4a158.62,158.62,0,0,0-13-63.06H482V405.1A77,77,0,0,1,405.1,482ZM405.1,30A77,77,0,0,1,482,106.9v67.44H385.45a159.33,159.33,0,0,0-258.89,0H30V106.9A77,77,0,0,1,106.9,30ZM385.49,267.4c0,71.4-58.09,129.48-129.49,129.48S126.51,338.8,126.51,267.4a129.49,129.49,0,0,1,259,0Z"/><path d="M397.3,85h30v30h-30Z"/><path d="M164.88,267.4A91.12,91.12,0,1,0,256,176.28a91.22,91.22,0,0,0-91.12,91.12Zm152.24,0A61.12,61.12,0,1,1,256,206.28,61.18,61.18,0,0,1,317.12,267.4Z"/>
    </symbol>
    <symbol id="viber" viewBox="0 0 469.33 512.45">
        <path d="M464.54,296.67C479.81,168.09,457.2,86.92,416.41,50.2l0,0C350.6-12.52,128.26-21.8,49.5,53,14.13,89.58,1.67,143.28.3,209.75s-3,191.07,113.09,224.86h.11l-.11,51.6s-.79,20.91,12.57,25.11c15.27,4.95,22.18-4.76,69.69-61.5,79.45,6.89,140.46-8.9,147.39-11.2,16-5.38,106.82-17.39,121.5-141.95ZM203.48,413.51s-50.28,62.7-65.92,79c-5.12,5.3-10.73,4.8-10.64-5.69,0-6.89.38-85.68.38-85.68-98.41-28.2-92.61-134.27-91.54-189.76S47,110.38,76.93,79.77C146,15,341,29.47,390.62,76.14,451.33,130,429.72,282,429.85,287.22c-12.48,104-86,110.57-99.56,115.07-5.78,1.92-59.44,15.72-126.81,11.22Z"/><path d="M231.3,92c-8.21,0-8.21,12.8,0,12.91,63.72.49,116.2,44.9,116.78,126.38,0,8.59,12.59,8.49,12.48-.11h0c-.69-87.79-58-138.69-129.24-139.18Z"/><path d="M315.12,217.73c-.19,8.49,12.37,8.9,12.48.3,1-48.4-28.8-88.28-84.89-92.48-8.21-.6-9.06,12.31-.87,12.91,48.64,3.69,74.26,36.88,73.28,79.27Z"/><path d="M301.68,272.79c-10.54-6.1-21.27-2.3-25.71,3.69l-9.28,12c-4.71,6.1-13.52,5.29-13.52,5.29-64.3-17-81.5-84.29-81.5-84.29s-.79-9.11,5.1-14l11.61-9.6c5.8-4.6,9.47-15.7,3.56-26.6-15.79-28.52-26.39-38.36-31.79-45.91-5.67-7.1-14.2-8.7-23.08-3.9h-.19c-18.45,10.79-38.66,31-32.19,51.79,11,21.94,31.29,91.84,95.89,144.67,30.36,25,78.4,50.58,98.79,56.49l.2.3c20.09,6.69,39.63-14.3,50.07-33.31v-.15c4.63-9.19,3.09-17.89-3.67-23.59-12-11.69-30.08-24.6-44.29-32.9Z"/><path d="M251.5,173.17c20.5,1.19,30.45,11.9,31.51,33.9.39,8.59,12.87,8,12.48-.6-1.36-28.72-16.34-44.72-43.3-46.21-8.22-.49-9,12.42-.69,12.91Z"/>
    </symbol>
    <symbol id="twitter" viewBox="0 0 512 416">
        <path d="M512,49.25a218.64,218.64,0,0,1-60.48,16.57,104.36,104.36,0,0,0,46.18-58,210,210,0,0,1-66.56,25.41A105,105,0,0,0,249.57,105,108,108,0,0,0,252,128.93C164.74,124.67,87.52,82.85,35.65,19.14A105,105,0,0,0,67.9,159.42,103.69,103.69,0,0,1,20.48,146.5v1.15a105.43,105.43,0,0,0,84.1,103.13,104.65,104.65,0,0,1-27.52,3.46,92.77,92.77,0,0,1-19.88-1.79c13.6,41.57,52.2,72.13,98.08,73.12A210.93,210.93,0,0,1,25.12,370.34,197.72,197.72,0,0,1,0,368.9,295.54,295.54,0,0,0,161,416c193.16,0,298.76-160,298.76-298.69,0-4.64-.16-9.12-.39-13.57A209.29,209.29,0,0,0,512,49.25Z"/>
    </symbol>
    <symbol id="telegram" viewBox="0 0 512 450">
        <path d="M123.2,260.74l63.68,159.19L269.78,337,411.92,450,512,0,0,213.27ZM365.7,129.11,209,272.05l-19.52,73.57L153.4,255.45Z"/>
    </symbol>
    <symbol id="linkedin" viewBox="0 0 28 28">
        <path fill-rule="evenodd" clip-rule="evenodd" d="M26.2713 0H2.24698C1.09656 0 0 0.781151 0 1.89681V26.0458C0 27.1614 1.09687 28 2.24698 28H26.2713C27.4217 28 28 27.1611 28 26.0458V1.89681C28 0.781464 27.4217 0 26.2713 0Z"/>
        <path fill-rule="evenodd" clip-rule="evenodd" d="M8.27273 23.5454H4.45454V10.8181H8.27273V23.5454ZM6.5809 8.90901H6.5524C5.12415 8.90901 4.1983 7.9814 4.1983 6.75861C4.1983 5.51109 5.1514 4.58545 6.60784 4.58545C8.06459 4.58545 8.96069 5.49845 8.98888 6.74629C8.98888 7.96939 8.0649 8.90901 6.5809 8.90901ZM24.1818 23.5454H19.7273V16.6641C19.7273 14.9527 19.1493 13.7853 17.6095 13.7853C16.4315 13.7853 15.727 14.5731 15.4201 15.3332C15.306 15.6051 15.2727 15.9847 15.2727 16.3643V23.5454H11.0655C11.0655 23.5454 11.1212 12.0908 11.0655 10.8181H15.2727V12.5503C15.9091 11.6834 16.9323 10.4465 19.1937 10.4465C21.996 10.4465 24.1818 12.2644 24.1818 16.1755V23.5454ZM15.2954 12.5907C15.3029 12.5788 15.3129 12.5644 15.323 12.5507V12.5907H15.2954Z" fill="white"/>
    </symbol>
    <symbol id="reddit" viewBox="0 0 30 30">
        <path d="M14.6573 0.010483C23.2105 -0.18217 30.2195 6.80366 29.9931 15.434C29.7866 23.3015 23.3311 30.0851 14.8213 29.9992C6.71312 29.9176 0.0442388 23.3475 0.00346375 14.9992C0.0529143 6.66307 6.68363 0.190986 14.6573 0.010483Z"/>
        <path fill-rule="evenodd" clip-rule="evenodd" d="M25.5703 16.8343C26.3649 16.2451 26.8473 15.4814 26.751 14.4522C26.6564 13.4429 26.1463 12.6923 25.2224 12.2818C24.2221 11.841 23.2652 11.965 22.4072 12.6662C22.3091 12.7461 22.2493 12.7495 22.1486 12.6836C20.5575 11.6344 18.8042 11.0469 16.9138 10.8551C16.7944 10.8429 16.6749 10.8304 16.5498 10.8173L16.5497 10.8172L16.2475 10.7857C16.4993 10.0027 16.7468 9.23203 16.9936 8.46338L16.9938 8.46286L17.463 7.00207C17.496 7.00738 17.5268 7.01189 17.5561 7.01617C17.613 7.02449 17.6642 7.03197 17.7146 7.04286C17.9851 7.10102 18.2555 7.15972 18.526 7.21844L18.5261 7.21844L18.5261 7.21844L18.5261 7.21845L18.5261 7.21846C19.2202 7.36912 19.9147 7.51986 20.6113 7.6616C20.81 7.70239 20.9089 7.77182 20.9653 7.98182C21.2308 8.97459 22.2189 9.60722 23.2166 9.44668C24.5882 9.22539 25.3326 7.74752 24.668 6.56383C24.1362 5.61792 22.4844 5.05212 21.4199 6.29047C21.3158 6.41197 21.2273 6.4406 21.072 6.40676C20.1586 6.20632 19.2443 6.01187 18.3297 5.81737C17.9891 5.74493 17.6484 5.67247 17.3077 5.5997C16.7863 5.48775 16.5425 5.63094 16.382 6.14121C16.2312 6.61987 16.0801 7.09842 15.9291 7.57698L15.9291 7.5771L15.929 7.57722C15.6266 8.53538 15.3243 9.49354 15.0234 10.4525C14.9844 10.5774 14.9514 10.6677 14.784 10.6668C13.9372 10.6607 13.1027 10.7805 12.275 10.9558C10.7906 11.2699 9.41034 11.8305 8.15499 12.6871C8.04048 12.7652 7.9702 12.7339 7.86523 12.6853C7.7487 12.6314 7.63293 12.5739 7.51705 12.5163L7.51704 12.5163C7.20588 12.3618 6.89387 12.2068 6.5639 12.1195C4.99883 11.7047 3.14053 12.9769 3.46066 15.0674C3.58646 15.8893 4.07489 16.4837 4.74811 16.935C4.85916 17.0087 4.88345 17.0755 4.8635 17.197C4.67524 18.3278 4.79236 19.4247 5.24869 20.4799C5.89762 21.9804 7.01416 23.0651 8.37015 23.9208C9.91786 24.8979 11.6348 25.3926 13.4349 25.6191C15.0095 25.8161 16.5755 25.7414 18.1223 25.3926C20.3485 24.8901 22.3308 23.9347 23.8568 22.1843C25.0671 20.7958 25.6032 19.1817 25.3542 17.3402C25.3204 17.0946 25.3794 16.9757 25.5703 16.8343ZM20.2756 16.9107C20.2791 17.742 19.533 18.4857 18.694 18.4866C17.8213 18.4875 17.1073 17.7533 17.1064 16.8525C17.1055 16.029 17.8412 15.307 18.6854 15.3044C19.5546 15.3018 20.2721 16.0255 20.2756 16.9107ZM19.0688 21.5013C19.251 21.2905 19.2042 21.0397 19.0367 20.8739C18.8042 20.6431 18.504 20.5789 18.2707 20.7125C18.2184 20.7425 18.1686 20.7766 18.1188 20.8106L18.1188 20.8106L18.1188 20.8106C18.0793 20.8376 18.0398 20.8646 17.9991 20.8895C16.3915 21.8667 14.712 22.0186 12.9717 21.2948C12.7045 21.1836 12.4534 21.032 12.203 20.8808L12.203 20.8808C12.1192 20.8302 12.0356 20.7797 11.9514 20.7307C11.7016 20.5849 11.3875 20.6361 11.1481 20.8783C10.9902 21.0371 10.9702 21.3104 11.1281 21.5343C11.2175 21.6602 11.338 21.7738 11.4647 21.8624C12.5526 22.626 13.7759 22.9445 15.1909 22.961C15.2353 22.9577 15.2879 22.9543 15.3463 22.9504C15.4899 22.9409 15.6687 22.9291 15.8476 22.9124C16.7273 22.8317 17.5662 22.6 18.3253 22.1435C18.6021 21.9752 18.8554 21.7461 19.0688 21.5013ZM13.0922 16.9072C13.0957 17.7108 12.3401 18.4849 11.5515 18.4866C10.657 18.4883 9.91353 17.7689 9.91092 16.8994C9.90919 16.0394 10.6371 15.3052 11.4916 15.3052C12.3574 15.3044 13.0888 16.0359 13.0922 16.9072Z" fill="white"/>
    </symbol>
    <symbol id="googlePlus" viewBox="0 0 34 22">
        <path fill-rule="evenodd" clip-rule="evenodd" d="M21.0476 9.56075C21.1488 10.1776 21.25 10.7944 21.25 11.4112C21.25 14.5981 20.3393 17.1682 18.3155 19.0187C16.3929 20.972 13.9643 22 10.8274 22C7.79167 22 5.2619 20.972 3.1369 18.8131C1.0119 16.6542 0 14.0841 0 11C0 7.91589 1.0119 5.34579 3.1369 3.18692C5.2619 1.02804 7.79167 0 10.8274 0C13.6607 0 16.0893 0.925234 18.1131 2.8785L15.1786 5.75701C14.0655 4.62617 12.5476 4.11215 10.8274 4.11215C9.00595 4.11215 7.3869 4.83178 6.07143 6.16822C4.75595 7.60748 4.04762 9.25234 4.04762 11.1028C4.04762 13.0561 4.75595 14.7009 6.07143 16.0374C7.3869 17.3738 9.00595 18.0935 10.8274 18.0935C12.3452 18.0935 13.6607 17.6822 14.875 16.8598C16.0893 15.9346 16.7976 14.8037 17 13.3645H10.8274V9.56075H21.0476ZM34 12.7477H30.9643V15.9346H27.8274V12.7477H24.6905V9.56075H27.8274V6.37383H30.9643V9.56075H34V12.7477Z"/>
    </symbol>
    <symbol id="youtube" viewBox="0 0 42 29">
        <path fill-rule="evenodd" clip-rule="evenodd" d="M41.4286 6.19495C41.4286 2.77341 38.657 0 35.2373 0H6.19127C2.77157 0 0 2.77341 0 6.19495V22.805C0 26.2266 2.77157 29 6.19127 29H35.2373C38.657 29 41.4286 26.2266 41.4286 22.805V6.19495Z"/>
        <path fill-rule="evenodd" clip-rule="evenodd" d="M16.5714 22.602V7L28.4025 14.801L16.5714 22.602Z" fill="white"/>
    </symbol>
    <symbol id="comments" viewBox="0 0 12 12" fill="none">
        <path d="M2.75001 9.33335V8.58335H2.00001H1.41667V1.41669H10.5833V8.58335H6.18667H6.00365L5.8412 8.66766L2.75001 10.2719V9.33335Z" stroke="#889099" stroke-width="1.5"/>
    </symbol>
    <symbol id="search" viewBox="0 0 20 20" fill="none">
        <circle cx="8.5" cy="8.5" r="7.5" stroke="#22252E" stroke-width="2" stroke-linecap="round" stroke-linejoin="round"/>
        <path d="M19 19L13.8 13.8" stroke="#22252E" stroke-width="2" stroke-linecap="round" stroke-linejoin="round"/>
    </symbol>
    <symbol id="bell" viewBox="0 0 60 60" fill="none">
        <path d="M44.0632 33.1186V33.3498L44.1646 33.5575L48.0926 41.5998L48.0932 41.6009C48.2243 41.8686 48.2082 42.1849 48.0505 42.4379C47.8929 42.6908 47.6159 42.8446 47.3179 42.8448H35.8094H34.8094V43.8448V44.0265C34.8094 46.7733 32.5827 49 29.836 49C27.0892 49 24.8625 46.7733 24.8625 44.0265V43.8448V42.8448H23.8625H12.3634C12.0653 42.8446 11.7884 42.6908 11.6307 42.4379C11.4731 42.1849 11.457 41.8686 11.5881 41.6009L11.5887 41.5998L15.5166 33.5575L15.6181 33.3498V33.1186V25.4444H15.6181L15.618 25.4334C15.5541 19.6307 19.0992 14.3979 24.512 12.3055L24.5197 12.3025L24.5266 12.2997L24.5269 12.2996L24.5269 12.2996L24.5271 12.2995L24.5274 12.2994L24.5305 12.2981L24.5494 12.2907C24.5672 12.2837 24.5951 12.2728 24.6325 12.2587C24.7072 12.2303 24.8196 12.1887 24.9639 12.1383C25.2531 12.0374 25.6685 11.9018 26.1657 11.7661C27.1704 11.4918 28.4638 11.2299 29.7093 11.2299C30.9584 11.2299 32.3207 11.4931 33.3987 11.7699C33.9316 11.9068 34.3823 12.0436 34.6984 12.1457C34.8562 12.1968 34.9798 12.2389 35.0627 12.2678C35.1042 12.2823 35.1354 12.2934 35.1555 12.3007L35.1725 12.3069C40.5405 14.454 44.0618 19.6527 44.0632 25.4351C44.0632 25.4352 44.0632 25.4353 44.0632 25.4354V33.1186Z" stroke="#46B843" stroke-width="2"/>
        <path d="M15.3571 43.2679H43.9286" stroke="#46B843" stroke-width="2" stroke-linecap="square"/>
    </symbol>
    <symbol id="arrow" viewBox="0 0 15 10" fill="none">
        <path fill-rule="evenodd" clip-rule="evenodd" d="M14.835 4.60765C15.055 4.82431 15.055 5.17652 14.835 5.39318L10.3222 9.8375C10.1022 10.0542 9.74461 10.0542 9.52462 9.8375C9.30462 9.62084 9.30462 9.26863 9.52462 9.05197L13.0739 5.5554L0.564095 5.5554C0.252714 5.5554 0 5.30763 0 4.99986C0 4.6932 0.252714 4.44432 0.564095 4.44432L13.0739 4.44432L9.52462 0.948863C9.30462 0.732202 9.30462 0.379989 9.52462 0.163329C9.63518 0.0544429 9.77959 0 9.92287 0C10.0673 0 10.2117 0.0544429 10.3222 0.163329L14.835 4.60765Z" fill="#4CB649"/>
    </symbol>
</svg>
